<svg xmlns="http://www.w3.org/2000/svg" viewBox="0 8 100 88"><circle cx="50" cy="52" r="42" fill="#FFF3B0" opacity=".45"/><g transform="translate(50 52) scale(0.92) translate(-50 -52)"><path d="M37 52 L21 40 L25 52 L21 64 Z" fill="#C9D8E8" stroke="#1F3550" stroke-width="2.5" stroke-linejoin="round" stroke-linecap="round"/><path d="M42 37 L54 9 L62 36 Z" fill="#C9D8E8" stroke="#1F3550" stroke-width="2.5" stroke-linejoin="round" stroke-linecap="round"/><path d="M44 67 L52 95 L60 68 Z" fill="#C9D8E8" stroke="#1F3550" stroke-width="2.5" stroke-linejoin="round" stroke-linecap="round"/><ellipse cx="50" cy="52" rx="17" ry="19" fill="#E4EDF5" stroke="#1F3550" stroke-width="2.5" stroke-linejoin="round" stroke-linecap="round"/><path d="M44 35 Q47 52 44 69" stroke="#3F5F8A" stroke-width="3.5" fill="none" stroke-linecap="round"/><path d="M56 35 Q59 52 56 69" stroke="#3F5F8A" stroke-width="3.5" fill="none" stroke-linecap="round"/><ellipse cx="52" cy="43.45" rx="9.350000000000001" ry="4.18" fill="#fff" opacity=".45"/><circle cx="59" cy="49" r="4.2" fill="#fff" stroke="#1F3550" stroke-width="1.8" stroke-linejoin="round" stroke-linecap="round"/><circle cx="60" cy="49" r="2" fill="#1F3550"/><path d="M66 55 q-3 2 -6 0" stroke="#1F3550" stroke-width="1.8" fill="none" stroke-linecap="round"/></g><path d="M14 10 L16.4 15.6 L22 18 L16.4 20.4 L14 26 L11.6 20.4 L6 18 L11.6 15.6 Z" fill="#FFE27A" stroke="#1F3550" stroke-width="1.2" stroke-linejoin="round"/><path d="M88 20 L89.8 24.2 L94 26 L89.8 27.8 L88 32 L86.2 27.8 L82 26 L86.2 24.2 Z" fill="#FFE27A" stroke="#1F3550" stroke-width="1.2" stroke-linejoin="round"/></svg>
