<svg xmlns="http://www.w3.org/2000/svg" viewBox="0 0 100 100"><rect x="6" y="6" width="88" height="88" rx="14" fill="#9FD27A" stroke="#3B2A1E" stroke-width="2.5" stroke-linejoin="round" stroke-linecap="round"/><rect x="14.0" y="14.0" width="15.0" height="15.0" rx="4" fill="#8B5E3C" stroke="#3B2A1E" stroke-width="2" stroke-linejoin="round" stroke-linecap="round"/><rect x="14.0" y="33.0" width="15.0" height="15.0" rx="4" fill="#8B5E3C" stroke="#3B2A1E" stroke-width="2" stroke-linejoin="round" stroke-linecap="round"/><rect x="14.0" y="52.0" width="15.0" height="15.0" rx="4" fill="#8B5E3C" stroke="#3B2A1E" stroke-width="2" stroke-linejoin="round" stroke-linecap="round"/><rect x="14.0" y="71.0" width="15.0" height="15.0" rx="4" fill="#8B5E3C" stroke="#3B2A1E" stroke-width="2" stroke-linejoin="round" stroke-linecap="round"/><rect x="33.0" y="14.0" width="15.0" height="15.0" rx="4" fill="#8B5E3C" stroke="#3B2A1E" stroke-width="2" stroke-linejoin="round" stroke-linecap="round"/><rect x="33.0" y="33.0" width="15.0" height="15.0" rx="4" fill="#8B5E3C" stroke="#3B2A1E" stroke-width="2" stroke-linejoin="round" stroke-linecap="round"/><rect x="33.0" y="52.0" width="15.0" height="15.0" rx="4" fill="#8B5E3C" stroke="#3B2A1E" stroke-width="2" stroke-linejoin="round" stroke-linecap="round"/><rect x="33.0" y="71.0" width="15.0" height="15.0" rx="4" fill="#8B5E3C" stroke="#3B2A1E" stroke-width="2" stroke-linejoin="round" stroke-linecap="round"/><rect x="52.0" y="14.0" width="15.0" height="15.0" rx="4" fill="#8B5E3C" stroke="#3B2A1E" stroke-width="2" stroke-linejoin="round" stroke-linecap="round"/><rect x="52.0" y="33.0" width="15.0" height="15.0" rx="4" fill="#8B5E3C" stroke="#3B2A1E" stroke-width="2" stroke-linejoin="round" stroke-linecap="round"/><rect x="52.0" y="52.0" width="15.0" height="15.0" rx="4" fill="#8B5E3C" stroke="#3B2A1E" stroke-width="2" stroke-linejoin="round" stroke-linecap="round"/><rect x="52.0" y="71.0" width="15.0" height="15.0" rx="4" fill="#8B5E3C" stroke="#3B2A1E" stroke-width="2" stroke-linejoin="round" stroke-linecap="round"/><rect x="71.0" y="14.0" width="15.0" height="15.0" rx="4" fill="#8B5E3C" stroke="#3B2A1E" stroke-width="2" stroke-linejoin="round" stroke-linecap="round"/><rect x="71.0" y="33.0" width="15.0" height="15.0" rx="4" fill="#8B5E3C" stroke="#3B2A1E" stroke-width="2" stroke-linejoin="round" stroke-linecap="round"/><rect x="71.0" y="52.0" width="15.0" height="15.0" rx="4" fill="#8B5E3C" stroke="#3B2A1E" stroke-width="2" stroke-linejoin="round" stroke-linecap="round"/><rect x="71.0" y="71.0" width="15.0" height="15.0" rx="4" fill="#8B5E3C" stroke="#3B2A1E" stroke-width="2" stroke-linejoin="round" stroke-linecap="round"/></svg>
