<svg xmlns="http://www.w3.org/2000/svg" viewBox="0 0 100 100"><path d="M20 70 a14 14 0 0 1 4 -27 a20 20 0 0 1 38 -8 a18 18 0 0 1 22 18 a12 12 0 0 1 -6 17 Z" fill="#9C8F5A" opacity=".85" stroke="#1F3550" stroke-width="2.5" stroke-linejoin="round" stroke-linecap="round"/><path d="M30 60 q10 6 22 0 M52 50 q8 4 16 0" stroke="#7B7040" stroke-width="3" fill="none" stroke-linecap="round"/><circle cx="42" cy="52" r="5" fill="#fff" stroke="#1F3550" stroke-width="2" stroke-linejoin="round" stroke-linecap="round"/><circle cx="60" cy="52" r="5" fill="#fff" stroke="#1F3550" stroke-width="2" stroke-linejoin="round" stroke-linecap="round"/><circle cx="43" cy="53" r="2.2" fill="#1F3550"/><circle cx="61" cy="53" r="2.2" fill="#1F3550"/><path d="M46 63 q5 4 10 0" stroke="#1F3550" stroke-width="2.2" fill="none" stroke-linecap="round"/></svg>
